<svg width="270" height="60" viewBox="0 0 270 60" fill="none" xmlns="http://www.w3.org/2000/svg">
<rect width="270" height="60" fill="#1E1E1E"/>
<rect width="270" height="60" fill="#1A1A1A"/>
<path d="M44.121 42.338C43.593 46.21 43.197 50.148 42.933 54.152C40.513 54.856 38.049 55.494 35.541 56.066C33.033 56.638 30.349 56.924 27.489 56.924C22.605 56.924 18.359 55.956 14.751 54.02C11.187 52.084 8.41504 49.378 6.43504 45.902C4.45504 42.382 3.46504 38.246 3.46504 33.494C3.46504 28.698 4.45504 24.474 6.43504 20.822C8.41504 17.126 11.209 14.244 14.817 12.176C18.425 10.108 22.671 9.074 27.555 9.074C29.359 9.074 30.943 9.184 32.307 9.404C33.671 9.624 35.321 9.954 37.257 10.394C38.137 10.57 38.907 10.746 39.567 10.922C40.227 11.098 40.909 11.186 41.613 11.186C41.833 11.186 42.075 11.186 42.339 11.186C42.603 11.142 42.823 11.098 42.999 11.054C43.087 12.99 43.175 14.992 43.263 17.06C43.351 19.128 43.483 21.284 43.659 23.528C42.779 23.66 42.031 23.704 41.415 23.66C39.699 15.696 35.189 11.714 27.885 11.714C24.937 11.714 22.429 12.308 20.361 13.496C18.293 14.64 16.621 16.224 15.345 18.248C14.069 20.228 13.145 22.472 12.573 24.98C12.001 27.488 11.715 30.106 11.715 32.834C11.715 36.706 12.287 40.27 13.431 43.526C14.575 46.782 16.379 49.378 18.843 51.314C21.307 53.25 24.475 54.218 28.347 54.218C31.999 54.218 34.903 53.25 37.059 51.314C39.259 49.378 40.843 46.364 41.811 42.272C42.163 42.272 42.515 42.272 42.867 42.272C43.263 42.272 43.681 42.294 44.121 42.338ZM64.8254 56.792C61.7014 56.792 59.0614 56.066 56.9054 54.614C54.7494 53.162 53.0994 51.226 51.9554 48.806C50.8554 46.342 50.3054 43.636 50.3054 40.688C50.3054 37.652 50.8774 34.836 52.0214 32.24C53.2094 29.644 54.9254 27.554 57.1694 25.97C59.4134 24.342 62.1414 23.528 65.3534 23.528C69.2254 23.528 72.2394 24.694 74.3954 27.026C76.5954 29.314 77.6954 32.284 77.6954 35.936C77.6954 36.376 77.6734 36.772 77.6294 37.124C77.6294 37.432 77.6074 37.696 77.5634 37.916L56.7734 37.718C56.7734 37.894 56.7734 38.048 56.7734 38.18C56.7734 42.492 57.7634 45.88 59.7434 48.344C61.7234 50.808 64.4954 52.04 68.0594 52.04C71.0514 52.04 73.9994 51.072 76.9034 49.136C77.3434 49.664 77.6734 50.17 77.8934 50.654C74.1534 54.746 69.7974 56.792 64.8254 56.792ZM56.9714 35.276L70.6334 35.012C70.6774 34.924 70.6994 34.814 70.6994 34.682C70.6994 34.506 70.6994 34.396 70.6994 34.352C70.6994 31.976 70.1714 29.996 69.1154 28.412C68.1034 26.828 66.5854 26.036 64.5614 26.036C62.6694 26.036 61.0194 26.806 59.6114 28.346C58.2034 29.886 57.3234 32.196 56.9714 35.276ZM72.9434 6.764V7.028L64.4954 19.832C64.2754 19.876 63.9674 19.876 63.5714 19.832C63.1754 19.788 62.8454 19.722 62.5814 19.634L65.8154 6.698C66.0354 6.478 66.7834 6.368 68.0594 6.368C69.8194 6.368 71.4474 6.5 72.9434 6.764ZM107.994 56.858L106.938 56.396L106.674 51.842C105.134 53.514 103.55 54.768 101.922 55.604C100.338 56.396 98.5781 56.792 96.6421 56.792C93.9141 56.792 91.5161 56.066 89.4481 54.614C87.4241 53.118 85.8621 51.182 84.7621 48.806C83.6621 46.43 83.1121 43.856 83.1121 41.084C83.1121 37.872 83.7941 34.946 85.1581 32.306C86.5661 29.666 88.5241 27.554 91.0321 25.97C93.5841 24.342 96.5541 23.528 99.9421 23.528C100.954 23.528 102.01 23.616 103.11 23.792C104.21 23.924 105.354 24.166 106.542 24.518V16.07C106.542 14.706 106.41 13.694 106.146 13.034C105.882 12.33 105.354 11.846 104.562 11.582C103.814 11.274 102.67 11.054 101.13 10.922C100.998 10.35 100.998 9.756 101.13 9.14C102.89 8.92 104.694 8.59 106.542 8.15C108.39 7.666 110.282 7.006 112.218 6.17L113.34 6.566C113.296 7.534 113.252 8.634 113.208 9.866C113.208 11.098 113.208 12.44 113.208 13.892V46.628C113.208 48.3 113.274 49.554 113.406 50.39C113.538 51.226 113.934 51.82 114.594 52.172C115.254 52.48 116.376 52.766 117.96 53.03C118.092 53.602 118.092 54.196 117.96 54.812C116.2 55.076 114.484 55.362 112.812 55.67C111.14 55.978 109.534 56.374 107.994 56.858ZM106.608 30.128C104.716 27.532 102.23 26.234 99.1501 26.234C96.1141 26.234 93.8261 27.356 92.2861 29.6C90.7461 31.8 89.9761 34.858 89.9761 38.774C89.9761 41.062 90.2841 43.262 90.9001 45.374C91.5161 47.486 92.5281 49.224 93.9361 50.588C95.3441 51.952 97.2141 52.634 99.5461 52.634C102.494 52.634 104.848 51.358 106.608 48.806V30.128ZM121.185 56.066C121.053 55.362 121.053 54.68 121.185 54.02C122.681 53.932 123.781 53.8 124.485 53.624C125.189 53.404 125.651 52.964 125.871 52.304C126.091 51.644 126.201 50.588 126.201 49.136V34.352C126.201 32.636 126.113 31.36 125.937 30.524C125.805 29.688 125.387 29.116 124.683 28.808C124.023 28.456 122.879 28.17 121.251 27.95C121.119 27.334 121.119 26.762 121.251 26.234C123.011 25.882 124.727 25.486 126.399 25.046C128.071 24.562 129.831 23.946 131.679 23.198L132.801 23.594V29.402C135.881 25.486 139.027 23.528 142.239 23.528C143.779 23.528 144.923 23.946 145.671 24.782C146.419 25.574 146.793 26.476 146.793 27.488C146.793 28.676 146.397 29.6 145.605 30.26C144.813 30.876 143.911 31.184 142.899 31.184C142.063 31.184 141.227 30.964 140.391 30.524C139.599 30.084 139.005 29.402 138.609 28.478C137.113 28.478 135.771 29.072 134.583 30.26C133.439 31.404 132.867 32.746 132.867 34.286V48.476C132.867 50.192 132.955 51.424 133.131 52.172C133.351 52.92 133.879 53.404 134.715 53.624C135.595 53.8 137.003 53.932 138.939 54.02C139.027 54.636 139.027 55.318 138.939 56.066C137.443 56.066 135.903 56.044 134.319 56C132.735 55.956 131.107 55.934 129.435 55.934C127.807 55.934 126.355 55.956 125.079 56C123.847 56.044 122.549 56.066 121.185 56.066ZM164.756 56.066C163.524 56.066 162.248 56.044 160.928 56C159.608 55.956 158.178 55.934 156.638 55.934C155.23 55.934 153.8 55.956 152.348 56C150.94 56.044 149.576 56.066 148.256 56.066C148.124 55.362 148.124 54.68 148.256 54.02C149.752 53.932 150.852 53.8 151.556 53.624C152.26 53.404 152.722 52.964 152.942 52.304C153.162 51.644 153.272 50.588 153.272 49.136V34.352C153.272 32.636 153.206 31.36 153.074 30.524C152.942 29.688 152.524 29.116 151.82 28.808C151.16 28.456 149.994 28.17 148.322 27.95C148.19 27.334 148.19 26.762 148.322 26.234C150.258 25.882 152.106 25.442 153.866 24.914C155.626 24.386 157.32 23.814 158.948 23.198L160.07 23.594C160.026 24.958 159.982 26.234 159.938 27.422C159.938 28.61 159.938 29.732 159.938 30.788V48.476C159.938 50.192 160.026 51.424 160.202 52.172C160.422 52.92 160.862 53.404 161.522 53.624C162.226 53.8 163.304 53.932 164.756 54.02C164.888 54.68 164.888 55.362 164.756 56.066ZM151.556 11.978C151.556 10.702 151.996 9.624 152.876 8.744C153.8 7.864 154.9 7.424 156.176 7.424C157.408 7.424 158.464 7.864 159.344 8.744C160.268 9.624 160.73 10.68 160.73 11.912C160.73 13.056 160.29 14.112 159.41 15.08C158.53 16.004 157.408 16.466 156.044 16.466C154.812 16.466 153.756 16.026 152.876 15.146C151.996 14.266 151.556 13.21 151.556 11.978ZM194.776 49.598C195.216 50.126 195.546 50.632 195.766 51.116C192.114 54.9 187.934 56.792 183.226 56.792C180.19 56.792 177.594 56.066 175.438 54.614C173.282 53.162 171.61 51.226 170.422 48.806C169.278 46.386 168.706 43.702 168.706 40.754C168.706 37.542 169.366 34.638 170.686 32.042C172.006 29.446 173.854 27.378 176.23 25.838C178.65 24.298 181.422 23.528 184.546 23.528C186.174 23.528 187.824 23.77 189.496 24.254C191.168 24.694 192.576 25.398 193.72 26.366C194.864 27.334 195.436 28.566 195.436 30.062C195.436 31.25 195.084 32.152 194.38 32.768C193.676 33.384 192.84 33.692 191.872 33.692C190.552 33.692 189.43 33.098 188.506 31.91C187.582 30.678 187.12 29.05 187.12 27.026C186.328 26.498 185.272 26.234 183.952 26.234C182.368 26.234 181.026 26.63 179.926 27.422C178.87 28.214 177.99 29.27 177.286 30.59C176.626 31.91 176.142 33.34 175.834 34.88C175.526 36.376 175.372 37.85 175.372 39.302C175.372 41.766 175.79 43.966 176.626 45.902C177.462 47.838 178.694 49.378 180.322 50.522C181.95 51.622 183.974 52.172 186.394 52.172C187.802 52.172 189.166 51.974 190.486 51.578C191.85 51.182 193.28 50.522 194.776 49.598ZM213.878 56.066C213.79 55.406 213.79 54.702 213.878 53.954C215.946 53.734 217.42 53.536 218.3 53.36C219.18 53.14 219.73 52.7 219.95 52.04C220.17 51.336 220.28 50.214 220.28 48.674V17.984C220.28 16.136 220.17 14.816 219.95 14.024C219.73 13.232 219.158 12.726 218.234 12.506C217.354 12.242 215.902 12.022 213.878 11.846C213.79 11.186 213.79 10.482 213.878 9.734C214.802 9.734 215.88 9.756 217.112 9.8C218.388 9.8 219.642 9.822 220.874 9.866C222.106 9.866 223.118 9.866 223.91 9.866C224.746 9.866 225.78 9.866 227.012 9.866C228.288 9.822 229.564 9.8 230.84 9.8C232.16 9.756 233.238 9.734 234.074 9.734C234.206 10.394 234.206 11.098 234.074 11.846C232.006 12.022 230.51 12.22 229.586 12.44C228.662 12.66 228.09 13.1 227.87 13.76C227.65 14.42 227.54 15.542 227.54 17.126V47.816C227.54 49.312 227.54 50.522 227.54 51.446C227.584 52.326 227.628 52.92 227.672 53.228H237.044C240.696 53.228 243.402 52.414 245.162 50.786C246.614 49.378 248.132 46.914 249.716 43.394C250.42 43.262 251.102 43.262 251.762 43.394C251.234 46.078 250.794 48.498 250.442 50.654C250.134 52.766 249.87 54.548 249.65 56C245.382 56 241.114 56 236.846 56C232.622 55.956 228.376 55.934 224.108 55.934C223.272 55.934 222.216 55.956 220.94 56C219.664 56 218.388 56 217.112 56C215.836 56.044 214.758 56.066 213.878 56.066ZM257.191 51.908C257.191 50.544 257.653 49.4 258.577 48.476C259.501 47.508 260.623 47.024 261.943 47.024C263.439 47.024 264.627 47.53 265.507 48.542C266.431 49.51 266.893 50.632 266.893 51.908C266.893 53.228 266.431 54.372 265.507 55.34C264.627 56.308 263.439 56.792 261.943 56.792C260.623 56.792 259.501 56.33 258.577 55.406C257.653 54.438 257.191 53.272 257.191 51.908Z" fill="white"/>
</svg>
